<svg xmlns="http://www.w3.org/2000/svg" viewBox="0 0 480 220" width="480" height="220">
  <title>480x220-Aruba-Networks-Partner-Cameo-Global</title>
      <rect width="480" height="220" style="fill: none"/>
  <path d="M266.11,119.29h0c0,21.24-17,38.49-37.7,38.49s-37.69-17.25-37.69-38.49V86.64s18.05,4.51,18.05,23.62v9c0,11.68,8.76,21,19.64,21s19.65-9.29,19.65-21V100.71c.79-15.93,14.33-21,17.78-22.83h.27v41.41ZM169.22,81.06a34.89,34.89,0,0,1,14.06,2.66v20.17a21.72,21.72,0,0,0-14.06-5c-11.95,0-21.51,9.29-21.51,21v38H129.66V88.23s7.44.27,12.21,3.72a38.56,38.56,0,0,1,27.35-10.89M82.68,140.53c-12,0-21.77-9.56-21.77-21.24s9.82-21.24,21.77-21.24,21.76,9.56,21.76,21.24-9.82,21.24-21.76,21.24m0-59.47c-21.77,0-39.29,17.26-39.29,38.23,0,21.24,17.52,38.23,39.29,38.23a39.16,39.16,0,0,0,23.89-8c4,6.64,15.39,8,15.39,8V119.29c0-21-17.52-38.23-39.28-38.23m314,59.47c-11.94,0-21.77-9.56-21.77-21.24s9.83-21.24,21.77-21.24,21.77,9.56,21.77,21.24-9.82,21.24-21.77,21.24m0-59.47c-21.77,0-39.29,17.26-39.29,38.23,0,21.24,17.52,38.23,39.29,38.23a39.12,39.12,0,0,0,23.89-8c4,6.64,15.4,8,15.4,8V119.29c0-21-17.52-38.23-39.29-38.23m-83.35,59.47c-11.95,0-21.77-9.56-21.77-21.24s9.82-21.24,21.77-21.24,21.77,9.56,21.77,21.24c.26,11.68-9.56,21.24-21.77,21.24m0-59.47a41,41,0,0,0-21.77,6.37v-6.1c-.8-15.93-13.8-21-17.25-22.83h-.27v99.28s11.68-1.33,16.19-7.7a41.2,41.2,0,0,0,23.1,7.44c21.77,0,39.29-17.26,39.29-38.23.26-21-17.52-38.23-39.29-38.23" style="fill: #f5831f"/>
  <rect width="480" height="220" style="fill: none"/>
</svg>
